<svg height='300px' width='300px'  fill="#4CE600" xmlns="http://www.w3.org/2000/svg" xmlns:xlink="http://www.w3.org/1999/xlink" version="1.1" x="0px" y="0px" viewBox="0 0 100 100" style="enable-background:new 0 0 100 100;" xml:space="preserve"><g><g><path d="M50,5C25.1471558,5,5,25.1471558,5,50c0,24.8527832,20.1471558,45,45,45s45-20.1472168,45-45    C95,25.1471558,74.8528442,5,50,5z M75.022522,35.2642822C56.4028931,53.2818604,47.0908813,72.3717041,46.9985962,72.5650635    c-0.043396,0.0895386-0.149231,0.2852783-0.1970215,0.3709717c-0.3828735,0.6937866-0.868103,1.1698608-1.5783691,1.6329346    c-0.0142822,0.0093384-0.0324097,0.0049438-0.0472412,0.0142822c-0.758606,0.4828491-1.4650269,0.7750854-2.368103,0.8031006    c-0.0472412,0.0010986-0.2576294,0-0.3065186,0c0,0-0.0016479-0.0010986-0.0032959-0.0010986l-0.0038452,0.0010986    c-0.7250977,0-1.4633789-0.1582031-2.1621094-0.4921875c-0.0362549-0.0175781-0.0565796-0.0510864-0.0917358-0.0692139    c-0.1351318-0.0681152-0.4220581-0.2112427-0.5511475-0.2919922c-0.5339355-0.3378296-0.6824341-0.454895-1.0405884-0.9421387    c-0.0609741-0.0818481-0.2764893-0.3764648-0.3336182-0.4632568c-0.0483398-0.0791016-4.9086914-7.4091797-12.5551758-12.2958984    c-2.324707-1.4853516-3.0058594-4.5703125-1.5205078-6.8994141s4.565918-2.9882812,6.8994141-1.5205078    c4.402771,2.8119507,7.9612427,6.1842041,10.5875244,9.0582275c4.5142822-7.6338501,13.1638184-20.6196899,26.3529053-33.3775635    c1.9775391-1.9335938,5.1416016-1.8720703,7.0576172,0.1142578C77.0615845,30.1842041,77.0088501,33.3482666,75.022522,35.2642822    z"></path></g></g></svg>